<?xml version="1.0" encoding="UTF-8" standalone="no"?>
<!DOCTYPE svg PUBLIC "-//W3C//DTD SVG 1.1//EN"
 "http://www.w3.org/Graphics/SVG/1.1/DTD/svg11.dtd">
<!-- Generated by graphviz version 2.30.1 (20150306.0020)
 -->
<!-- Title: unoidl::Entity Pages: 1 -->
<svg width="608pt" height="465pt"
 viewBox="0.00 0.00 608.00 465.00" xmlns="http://www.w3.org/2000/svg" xmlns:xlink="http://www.w3.org/1999/xlink">
<g id="graph0" class="graph" transform="scale(1 1) rotate(0) translate(4 461)">
<title>unoidl::Entity</title>
<polygon fill="white" stroke="white" points="-4,5 -4,-461 605,-461 605,5 -4,5"/>
<!-- Node1 -->
<g id="node1" class="node"><title>Node1</title>
<polygon fill="#bfbfbf" stroke="black" points="174,-243.5 174,-262.5 248,-262.5 248,-243.5 174,-243.5"/>
<text text-anchor="middle" x="211" y="-250.5" font-family="Helvetica,sans-Serif" font-size="10.00">unoidl::Entity</text>
</g>
<!-- Node3 -->
<g id="node3" class="node"><title>Node3</title>
<g id="a_node3"><a xlink:href="classunoidl_1_1ModuleEntity.html" target="_top" xlink:title="unoidl::ModuleEntity">
<polygon fill="white" stroke="black" points="293.5,-262.5 293.5,-281.5 398.5,-281.5 398.5,-262.5 293.5,-262.5"/>
<text text-anchor="middle" x="346" y="-269.5" font-family="Helvetica,sans-Serif" font-size="10.00">unoidl::ModuleEntity</text>
</a>
</g>
</g>
<!-- Node1&#45;&gt;Node3 -->
<g id="edge2" class="edge"><title>Node1&#45;&gt;Node3</title>
<path fill="none" stroke="midnightblue" d="M258.4,-259.629C269.655,-261.236 281.76,-262.966 293.246,-264.607"/>
<polygon fill="midnightblue" stroke="midnightblue" points="258.737,-256.141 248.343,-258.192 257.747,-263.071 258.737,-256.141"/>
</g>
<!-- Node4 -->
<g id="node4" class="node"><title>Node4</title>
<g id="a_node4"><a xlink:href="classunoidl_1_1PublishableEntity.html" target="_top" xlink:title="unoidl::PublishableEntity">
<polygon fill="white" stroke="black" points="284,-224.5 284,-243.5 408,-243.5 408,-224.5 284,-224.5"/>
<text text-anchor="middle" x="346" y="-231.5" font-family="Helvetica,sans-Serif" font-size="10.00">unoidl::PublishableEntity</text>
</a>
</g>
</g>
<!-- Node1&#45;&gt;Node4 -->
<g id="edge3" class="edge"><title>Node1&#45;&gt;Node4</title>
<path fill="none" stroke="midnightblue" d="M258.465,-246.362C266.679,-245.189 275.344,-243.951 283.889,-242.73"/>
<polygon fill="midnightblue" stroke="midnightblue" points="257.747,-242.929 248.343,-247.808 258.737,-249.859 257.747,-242.929"/>
</g>
<!-- Node2 -->
<g id="node2" class="node"><title>Node2</title>
<g id="a_node2"><a doxygen="/home/tdf/lode/jenkins/workspace/lo_tb_master_linux_dbg/docs/salhelper/salhelper.tags:./salhelper/html/" xlink:href="./salhelper/html/classsalhelper_1_1SimpleReferenceObject.html" target="_top" xlink:title="salhelper::SimpleReference\lObject">
<polygon fill="white" stroke="black" points="0.5,-238 0.5,-268 137.5,-268 137.5,-238 0.5,-238"/>
<text text-anchor="start" x="8.5" y="-256" font-family="Helvetica,sans-Serif" font-size="10.00">salhelper::SimpleReference</text>
<text text-anchor="middle" x="69" y="-245" font-family="Helvetica,sans-Serif" font-size="10.00">Object</text>
</a>
</g>
</g>
<!-- Node2&#45;&gt;Node1 -->
<g id="edge1" class="edge"><title>Node2&#45;&gt;Node1</title>
<path fill="none" stroke="midnightblue" d="M147.561,-253C156.761,-253 165.785,-253 173.986,-253"/>
<polygon fill="midnightblue" stroke="midnightblue" points="147.54,-249.5 137.54,-253 147.539,-256.5 147.54,-249.5"/>
</g>
<!-- Node5 -->
<g id="node5" class="node"><title>Node5</title>
<g id="a_node5"><a xlink:href="classunoidl_1_1AccumulationBasedServiceEntity.html" target="_top" xlink:title="unoidl::AccumulationBased\lServiceEntity">
<polygon fill="white" stroke="black" points="454.5,-427 454.5,-457 589.5,-457 589.5,-427 454.5,-427"/>
<text text-anchor="start" x="462.5" y="-445" font-family="Helvetica,sans-Serif" font-size="10.00">unoidl::AccumulationBased</text>
<text text-anchor="middle" x="522" y="-434" font-family="Helvetica,sans-Serif" font-size="10.00">ServiceEntity</text>
</a>
</g>
</g>
<!-- Node4&#45;&gt;Node5 -->
<g id="edge4" class="edge"><title>Node4&#45;&gt;Node5</title>
<path fill="none" stroke="midnightblue" d="M404.111,-249.306C405.487,-250.45 406.788,-251.68 408,-253 458.454,-307.984 393.876,-361.715 444,-417 447.493,-420.853 451.585,-424.114 456.029,-426.874"/>
<polygon fill="midnightblue" stroke="midnightblue" points="405.81,-246.233 395.539,-243.633 401.947,-252.07 405.81,-246.233"/>
</g>
<!-- Node6 -->
<g id="node6" class="node"><title>Node6</title>
<g id="a_node6"><a xlink:href="classunoidl_1_1ConstantGroupEntity.html" target="_top" xlink:title="unoidl::ConstantGroupEntity">
<polygon fill="white" stroke="black" points="452,-388.5 452,-407.5 592,-407.5 592,-388.5 452,-388.5"/>
<text text-anchor="middle" x="522" y="-395.5" font-family="Helvetica,sans-Serif" font-size="10.00">unoidl::ConstantGroupEntity</text>
</a>
</g>
</g>
<!-- Node4&#45;&gt;Node6 -->
<g id="edge5" class="edge"><title>Node4&#45;&gt;Node6</title>
<path fill="none" stroke="midnightblue" d="M403.421,-248.951C405.042,-250.195 406.576,-251.542 408,-253 448.693,-294.667 402.075,-338.573 444,-379 447.965,-382.823 452.57,-385.915 457.52,-388.412"/>
<polygon fill="midnightblue" stroke="midnightblue" points="405.047,-245.841 394.702,-243.551 401.361,-251.792 405.047,-245.841"/>
</g>
<!-- Node7 -->
<g id="node7" class="node"><title>Node7</title>
<g id="a_node7"><a xlink:href="classunoidl_1_1EnumTypeEntity.html" target="_top" xlink:title="unoidl::EnumTypeEntity">
<polygon fill="white" stroke="black" points="461.5,-350.5 461.5,-369.5 582.5,-369.5 582.5,-350.5 461.5,-350.5"/>
<text text-anchor="middle" x="522" y="-357.5" font-family="Helvetica,sans-Serif" font-size="10.00">unoidl::EnumTypeEntity</text>
</a>
</g>
</g>
<!-- Node4&#45;&gt;Node7 -->
<g id="edge6" class="edge"><title>Node4&#45;&gt;Node7</title>
<path fill="none" stroke="midnightblue" d="M402.462,-248.634C404.416,-249.964 406.273,-251.416 408,-253 439.143,-281.563 412.014,-313.385 444,-341 449.107,-345.409 455.08,-348.826 461.4,-351.47"/>
<polygon fill="midnightblue" stroke="midnightblue" points="403.808,-245.376 393.374,-243.54 400.386,-251.482 403.808,-245.376"/>
</g>
<!-- Node8 -->
<g id="node8" class="node"><title>Node8</title>
<g id="a_node8"><a xlink:href="classunoidl_1_1ExceptionTypeEntity.html" target="_top" xlink:title="unoidl::ExceptionTypeEntity">
<polygon fill="white" stroke="black" points="452.5,-312.5 452.5,-331.5 591.5,-331.5 591.5,-312.5 452.5,-312.5"/>
<text text-anchor="middle" x="522" y="-319.5" font-family="Helvetica,sans-Serif" font-size="10.00">unoidl::ExceptionTypeEntity</text>
</a>
</g>
</g>
<!-- Node4&#45;&gt;Node8 -->
<g id="edge7" class="edge"><title>Node4&#45;&gt;Node8</title>
<path fill="none" stroke="midnightblue" d="M399.349,-247.761C402.379,-249.327 405.291,-251.068 408,-253 430.001,-268.692 421.63,-286.839 444,-302 450.403,-306.339 457.689,-309.737 465.165,-312.398"/>
<polygon fill="midnightblue" stroke="midnightblue" points="400.546,-244.462 389.99,-243.562 397.681,-250.849 400.546,-244.462"/>
</g>
<!-- Node9 -->
<g id="node9" class="node"><title>Node9</title>
<g id="a_node9"><a xlink:href="classunoidl_1_1InterfaceBasedSingletonEntity.html" target="_top" xlink:title="unoidl::InterfaceBasedSingleton\lEntity">
<polygon fill="white" stroke="black" points="444.5,-263 444.5,-293 599.5,-293 599.5,-263 444.5,-263"/>
<text text-anchor="start" x="452.5" y="-281" font-family="Helvetica,sans-Serif" font-size="10.00">unoidl::InterfaceBasedSingleton</text>
<text text-anchor="middle" x="522" y="-270" font-family="Helvetica,sans-Serif" font-size="10.00">Entity</text>
</a>
</g>
</g>
<!-- Node4&#45;&gt;Node9 -->
<g id="edge8" class="edge"><title>Node4&#45;&gt;Node9</title>
<path fill="none" stroke="midnightblue" d="M394.558,-246.026C415.197,-251.245 439.593,-257.414 461.423,-262.935"/>
<polygon fill="midnightblue" stroke="midnightblue" points="395.308,-242.606 384.755,-243.547 393.592,-249.392 395.308,-242.606"/>
</g>
<!-- Node10 -->
<g id="node10" class="node"><title>Node10</title>
<g id="a_node10"><a xlink:href="classunoidl_1_1InterfaceTypeEntity.html" target="_top" xlink:title="unoidl::InterfaceTypeEntity">
<polygon fill="white" stroke="black" points="455,-224.5 455,-243.5 589,-243.5 589,-224.5 455,-224.5"/>
<text text-anchor="middle" x="522" y="-231.5" font-family="Helvetica,sans-Serif" font-size="10.00">unoidl::InterfaceTypeEntity</text>
</a>
</g>
</g>
<!-- Node4&#45;&gt;Node10 -->
<g id="edge9" class="edge"><title>Node4&#45;&gt;Node10</title>
<path fill="none" stroke="midnightblue" d="M418.375,-234C430.455,-234 442.952,-234 454.89,-234"/>
<polygon fill="midnightblue" stroke="midnightblue" points="418.346,-230.5 408.346,-234 418.346,-237.5 418.346,-230.5"/>
</g>
<!-- Node11 -->
<g id="node11" class="node"><title>Node11</title>
<g id="a_node11"><a xlink:href="classunoidl_1_1PlainStructTypeEntity.html" target="_top" xlink:title="unoidl::PlainStructTypeEntity">
<polygon fill="white" stroke="black" points="450.5,-186.5 450.5,-205.5 593.5,-205.5 593.5,-186.5 450.5,-186.5"/>
<text text-anchor="middle" x="522" y="-193.5" font-family="Helvetica,sans-Serif" font-size="10.00">unoidl::PlainStructTypeEntity</text>
</a>
</g>
</g>
<!-- Node4&#45;&gt;Node11 -->
<g id="edge10" class="edge"><title>Node4&#45;&gt;Node11</title>
<path fill="none" stroke="midnightblue" d="M400.814,-222.247C425.418,-216.874 454.187,-210.591 477.408,-205.52"/>
<polygon fill="midnightblue" stroke="midnightblue" points="399.93,-218.858 390.908,-224.411 401.424,-225.697 399.93,-218.858"/>
</g>
<!-- Node12 -->
<g id="node12" class="node"><title>Node12</title>
<g id="a_node12"><a xlink:href="classunoidl_1_1PolymorphicStructTypeTemplateEntity.html" target="_top" xlink:title="unoidl::PolymorphicStruct\lTypeTemplateEntity">
<polygon fill="white" stroke="black" points="458,-137 458,-167 586,-167 586,-137 458,-137"/>
<text text-anchor="start" x="466" y="-155" font-family="Helvetica,sans-Serif" font-size="10.00">unoidl::PolymorphicStruct</text>
<text text-anchor="middle" x="522" y="-144" font-family="Helvetica,sans-Serif" font-size="10.00">TypeTemplateEntity</text>
</a>
</g>
</g>
<!-- Node4&#45;&gt;Node12 -->
<g id="edge11" class="edge"><title>Node4&#45;&gt;Node12</title>
<path fill="none" stroke="midnightblue" d="M369.556,-218.839C388.749,-206.411 417.362,-188.979 444,-177 452.076,-173.368 460.84,-170.01 469.465,-167.011"/>
<polygon fill="midnightblue" stroke="midnightblue" points="367.381,-216.08 360.94,-224.492 371.221,-221.932 367.381,-216.08"/>
</g>
<!-- Node13 -->
<g id="node13" class="node"><title>Node13</title>
<g id="a_node13"><a xlink:href="classunoidl_1_1ServiceBasedSingletonEntity.html" target="_top" xlink:title="unoidl::ServiceBasedSingleton\lEntity">
<polygon fill="white" stroke="black" points="447.5,-88 447.5,-118 596.5,-118 596.5,-88 447.5,-88"/>
<text text-anchor="start" x="455.5" y="-106" font-family="Helvetica,sans-Serif" font-size="10.00">unoidl::ServiceBasedSingleton</text>
<text text-anchor="middle" x="522" y="-95" font-family="Helvetica,sans-Serif" font-size="10.00">Entity</text>
</a>
</g>
</g>
<!-- Node4&#45;&gt;Node13 -->
<g id="edge12" class="edge"><title>Node4&#45;&gt;Node13</title>
<path fill="none" stroke="midnightblue" d="M358.69,-216.011C375.022,-192.266 406.874,-150.706 444,-127 449.311,-123.609 455.134,-120.669 461.125,-118.125"/>
<polygon fill="midnightblue" stroke="midnightblue" points="355.698,-214.189 353.03,-224.442 361.51,-218.09 355.698,-214.189"/>
</g>
<!-- Node14 -->
<g id="node14" class="node"><title>Node14</title>
<g id="a_node14"><a xlink:href="classunoidl_1_1SingleInterfaceBasedServiceEntity.html" target="_top" xlink:title="unoidl::SingleInterfaceBased\lServiceEntity">
<polygon fill="white" stroke="black" points="451.5,-39 451.5,-69 592.5,-69 592.5,-39 451.5,-39"/>
<text text-anchor="start" x="459.5" y="-57" font-family="Helvetica,sans-Serif" font-size="10.00">unoidl::SingleInterfaceBased</text>
<text text-anchor="middle" x="522" y="-46" font-family="Helvetica,sans-Serif" font-size="10.00">ServiceEntity</text>
</a>
</g>
</g>
<!-- Node4&#45;&gt;Node14 -->
<g id="edge13" class="edge"><title>Node4&#45;&gt;Node14</title>
<path fill="none" stroke="midnightblue" d="M353.903,-214.472C366.564,-181.457 396.63,-114.637 444,-78 448.43,-74.5734 453.356,-71.6316 458.514,-69.1069"/>
<polygon fill="midnightblue" stroke="midnightblue" points="350.462,-213.686 350.277,-224.28 357.027,-216.114 350.462,-213.686"/>
</g>
<!-- Node15 -->
<g id="node15" class="node"><title>Node15</title>
<g id="a_node15"><a xlink:href="classunoidl_1_1TypedefEntity.html" target="_top" xlink:title="unoidl::TypedefEntity">
<polygon fill="white" stroke="black" points="467.5,-0.5 467.5,-19.5 576.5,-19.5 576.5,-0.5 467.5,-0.5"/>
<text text-anchor="middle" x="522" y="-7.5" font-family="Helvetica,sans-Serif" font-size="10.00">unoidl::TypedefEntity</text>
</a>
</g>
</g>
<!-- Node4&#45;&gt;Node15 -->
<g id="edge14" class="edge"><title>Node4&#45;&gt;Node15</title>
<path fill="none" stroke="midnightblue" d="M350.458,-214.45C358.768,-173.449 383.817,-78.2056 444,-29 450.716,-23.5093 458.789,-19.5704 467.146,-16.752"/>
<polygon fill="midnightblue" stroke="midnightblue" points="346.978,-214.013 348.542,-224.492 353.854,-215.325 346.978,-214.013"/>
</g>
</g>
</svg>
