<?xml version="1.0" encoding="UTF-8" standalone="no"?>
<!DOCTYPE svg PUBLIC "-//W3C//DTD SVG 1.1//EN"
 "http://www.w3.org/Graphics/SVG/1.1/DTD/svg11.dtd">
<!-- Generated by graphviz version 2.30.1 (20150306.0020)
 -->
<!-- Title: unoidl::Provider Pages: 1 -->
<svg width="448pt" height="165pt"
 viewBox="0.00 0.00 448.00 165.00" xmlns="http://www.w3.org/2000/svg" xmlns:xlink="http://www.w3.org/1999/xlink">
<g id="graph0" class="graph" transform="scale(1 1) rotate(0) translate(4 161)">
<title>unoidl::Provider</title>
<polygon fill="white" stroke="white" points="-4,5 -4,-161 445,-161 445,5 -4,5"/>
<!-- Node1 -->
<g id="node1" class="node"><title>Node1</title>
<polygon fill="#bfbfbf" stroke="black" points="174,-68.5 174,-87.5 258,-87.5 258,-68.5 174,-68.5"/>
<text text-anchor="middle" x="216" y="-75.5" font-family="Helvetica,sans-Serif" font-size="10.00">unoidl::Provider</text>
</g>
<!-- Node3 -->
<g id="node3" class="node"><title>Node3</title>
<g id="a_node3"><a xlink:href="classunoidl_1_1detail_1_1LegacyProvider.html" target="_top" xlink:title="unoidl::detail::LegacyProvider">
<polygon fill="white" stroke="black" points="294.5,-137.5 294.5,-156.5 439.5,-156.5 439.5,-137.5 294.5,-137.5"/>
<text text-anchor="middle" x="367" y="-144.5" font-family="Helvetica,sans-Serif" font-size="10.00">unoidl::detail::LegacyProvider</text>
</a>
</g>
</g>
<!-- Node1&#45;&gt;Node3 -->
<g id="edge2" class="edge"><title>Node1&#45;&gt;Node3</title>
<path fill="none" stroke="midnightblue" d="M237.9,-93.7078C252.87,-104.342 273.861,-118.034 294,-127 303.244,-131.115 313.54,-134.58 323.387,-137.408"/>
<polygon fill="midnightblue" stroke="midnightblue" points="239.568,-90.5937 229.42,-87.5516 235.456,-96.2585 239.568,-90.5937"/>
</g>
<!-- Node4 -->
<g id="node4" class="node"><title>Node4</title>
<g id="a_node4"><a xlink:href="classunoidl_1_1detail_1_1SourceFileProvider.html" target="_top" xlink:title="unoidl::detail::SourceFile\lProvider">
<polygon fill="white" stroke="black" points="305,-88 305,-118 429,-118 429,-88 305,-88"/>
<text text-anchor="start" x="313" y="-106" font-family="Helvetica,sans-Serif" font-size="10.00">unoidl::detail::SourceFile</text>
<text text-anchor="middle" x="367" y="-95" font-family="Helvetica,sans-Serif" font-size="10.00">Provider</text>
</a>
</g>
</g>
<!-- Node1&#45;&gt;Node4 -->
<g id="edge3" class="edge"><title>Node1&#45;&gt;Node4</title>
<path fill="none" stroke="midnightblue" d="M268.237,-86.5969C280.056,-88.5798 292.742,-90.7084 304.932,-92.7538"/>
<polygon fill="midnightblue" stroke="midnightblue" points="268.551,-83.1006 258.109,-84.8975 267.392,-90.0041 268.551,-83.1006"/>
</g>
<!-- Node5 -->
<g id="node5" class="node"><title>Node5</title>
<g id="a_node5"><a xlink:href="classunoidl_1_1detail_1_1SourceTreeProvider.html" target="_top" xlink:title="unoidl::detail::SourceTree\lProvider">
<polygon fill="white" stroke="black" points="303,-39 303,-69 431,-69 431,-39 303,-39"/>
<text text-anchor="start" x="311" y="-57" font-family="Helvetica,sans-Serif" font-size="10.00">unoidl::detail::SourceTree</text>
<text text-anchor="middle" x="367" y="-46" font-family="Helvetica,sans-Serif" font-size="10.00">Provider</text>
</a>
</g>
</g>
<!-- Node1&#45;&gt;Node5 -->
<g id="edge4" class="edge"><title>Node1&#45;&gt;Node5</title>
<path fill="none" stroke="midnightblue" d="M268.148,-69.7614C279.355,-67.9562 291.347,-66.0247 302.958,-64.1544"/>
<polygon fill="midnightblue" stroke="midnightblue" points="267.425,-66.3326 258.109,-71.3784 268.539,-73.2435 267.425,-66.3326"/>
</g>
<!-- Node6 -->
<g id="node6" class="node"><title>Node6</title>
<g id="a_node6"><a xlink:href="classunoidl_1_1detail_1_1UnoidlProvider.html" target="_top" xlink:title="unoidl::detail::UnoidlProvider">
<polygon fill="white" stroke="black" points="296.5,-0.5 296.5,-19.5 437.5,-19.5 437.5,-0.5 296.5,-0.5"/>
<text text-anchor="middle" x="367" y="-7.5" font-family="Helvetica,sans-Serif" font-size="10.00">unoidl::detail::UnoidlProvider</text>
</a>
</g>
</g>
<!-- Node1&#45;&gt;Node6 -->
<g id="edge5" class="edge"><title>Node1&#45;&gt;Node6</title>
<path fill="none" stroke="midnightblue" d="M237.864,-62.2106C252.817,-51.5391 273.803,-37.8351 294,-29 302.528,-25.2695 311.954,-22.1345 321.099,-19.5551"/>
<polygon fill="midnightblue" stroke="midnightblue" points="235.409,-59.6698 229.395,-68.3925 239.536,-65.3238 235.409,-59.6698"/>
</g>
<!-- Node2 -->
<g id="node2" class="node"><title>Node2</title>
<g id="a_node2"><a doxygen="/home/tdf/lode/jenkins/workspace/lo_tb_master_linux_dbg/docs/salhelper/salhelper.tags:./salhelper/html/" xlink:href="./salhelper/html/classsalhelper_1_1SimpleReferenceObject.html" target="_top" xlink:title="salhelper::SimpleReference\lObject">
<polygon fill="white" stroke="black" points="0.5,-63 0.5,-93 137.5,-93 137.5,-63 0.5,-63"/>
<text text-anchor="start" x="8.5" y="-81" font-family="Helvetica,sans-Serif" font-size="10.00">salhelper::SimpleReference</text>
<text text-anchor="middle" x="69" y="-70" font-family="Helvetica,sans-Serif" font-size="10.00">Object</text>
</a>
</g>
</g>
<!-- Node2&#45;&gt;Node1 -->
<g id="edge1" class="edge"><title>Node2&#45;&gt;Node1</title>
<path fill="none" stroke="midnightblue" d="M147.878,-78C156.762,-78 165.538,-78 173.669,-78"/>
<polygon fill="midnightblue" stroke="midnightblue" points="147.83,-74.5001 137.83,-78 147.83,-81.5001 147.83,-74.5001"/>
</g>
</g>
</svg>
